<?xml version="1.0" encoding="UTF-8" standalone="no" ?>
<!DOCTYPE svg PUBLIC "-//W3C//DTD SVG 1.1//EN" "http://www.w3.org/Graphics/SVG/1.1/DTD/svg11.dtd">
<svg xmlns="http://www.w3.org/2000/svg" xmlns:xlink="http://www.w3.org/1999/xlink" version="1.1" width="190.0187" height="209.8063" xml:space="preserve">
<desc>Created with Fabric.js 1.6.0-rc.1</desc>
<defs></defs>
<g style="stroke: none; stroke-width: 1; stroke-dasharray: none; stroke-linecap: butt; stroke-linejoin: miter; stroke-miterlimit: 10; fill: none; fill-rule: nonzero; opacity: 1;" transform="translate(10 10) scale(0.37 0.37)" >
  <rect x="306.74" y="406.86" rx="0" ry="0" width="17.65" height="64.2" style="stroke: none; stroke-width: 1; stroke-dasharray: none; stroke-linecap: butt; stroke-linejoin: miter; stroke-miterlimit: 10; fill: #004040; fill-rule: nonzero; opacity: 1;" transform=" matrix(1 0 0 1 0 0) "/>
  <rect x="187.57" y="406.86" rx="0" ry="0" width="17.65" height="64.2" style="stroke: none; stroke-width: 1; stroke-dasharray: none; stroke-linecap: butt; stroke-linejoin: miter; stroke-miterlimit: 10; fill: #004040; fill-rule: nonzero; opacity: 1;" transform=" matrix(1 0 0 1 0 0) "/>
  <rect x="175.74" y="398.06" rx="0" ry="0" width="160.51" height="17.65" style="stroke: none; stroke-width: 1; stroke-dasharray: none; stroke-linecap: butt; stroke-linejoin: miter; stroke-miterlimit: 10; fill: #004040; fill-rule: nonzero; opacity: 1;" transform=" matrix(1 0 0 1 0 0) "/>
  <rect x="175.74" y="430.16" rx="0" ry="0" width="160.51" height="17.65" style="stroke: none; stroke-width: 1; stroke-dasharray: none; stroke-linecap: butt; stroke-linejoin: miter; stroke-miterlimit: 10; fill: #004040; fill-rule: nonzero; opacity: 1;" transform=" matrix(1 0 0 1 0 0) "/>
  <rect x="175.74" y="462.26" rx="0" ry="0" width="160.51" height="17.65" style="stroke: none; stroke-width: 1; stroke-dasharray: none; stroke-linecap: butt; stroke-linejoin: miter; stroke-miterlimit: 10; fill: #004040; fill-rule: nonzero; opacity: 1;" transform=" matrix(1 0 0 1 0 0) "/>
  <rect x="220.31" y="494.34" rx="0" ry="0" width="71.33" height="17.66" style="stroke: none; stroke-width: 1; stroke-dasharray: none; stroke-linecap: butt; stroke-linejoin: miter; stroke-miterlimit: 10; fill: #004040; fill-rule: nonzero; opacity: 1;" transform=" matrix(1 0 0 1 0 0) "/>
  <path d="M 324.382 415.7 H 187.556 v -8.827 c 0 -30.802 -13.094 -60.411 -35.924 -81.226 l -1.129 -0.988 c -0.991 -0.865 -1.958 -1.718 -2.926 -2.516 l -0.333 -0.289 c -33.426 -30.566 -52.595 -73.992 -52.595 -119.148 c 0 -88.965 72.374 -161.339 161.334 -161.339 c 88.973 0 161.352 72.374 161.352 161.339 c 0 45.128 -19.185 88.553 -52.639 119.148 l -0.302 0.266 c -1.014 0.847 -2.033 1.761 -3.059 2.685 l -1.014 0.911 c -22.817 20.7 -35.935 50.301 -35.935 81.16 v 8.824 H 324.382 z M 204.902 398.046 h 102.136 c 2.281 -32.602 17.106 -63.357 41.469 -85.463 l 1.029 -0.922 c 1.134 -1.019 2.263 -2.022 3.382 -2.967 c 29.716 -27.251 46.758 -65.874 46.758 -105.992 c 0 -79.227 -64.463 -143.685 -143.695 -143.685 c -79.227 0 -143.677 64.458 -143.677 143.685 c 0 40.143 17.014 78.756 46.697 105.976 c 1.039 0.865 2.081 1.777 3.141 2.706 l 1.234 1.078 C 187.819 334.75 202.621 365.509 204.902 398.046 z" style="stroke: none; stroke-width: 1; stroke-dasharray: none; stroke-linecap: butt; stroke-linejoin: miter; stroke-miterlimit: 10; fill: #004040; fill-rule: nonzero; opacity: 1;" transform=" matrix(1 0 0 1 0 0) " stroke-linecap="round" />
  <rect x="247.16" y="364.5" rx="0" ry="0" width="17.65" height="42.37" style="stroke: none; stroke-width: 1; stroke-dasharray: none; stroke-linecap: butt; stroke-linejoin: miter; stroke-miterlimit: 10; fill: #004040; fill-rule: nonzero; opacity: 1;" transform=" matrix(1 0 0 1 0 0) "/>
  <path d="M 313.843 293.946 c 2.885 1.224 6.075 1.879 9.393 1.879 c 13.663 0 24.709 -11.052 24.709 -24.694 c 0 -1.894 -0.218 -3.727 -0.609 -5.45 c 5.97 -0.246 11.901 -2.673 16.456 -7.227 c 9.152 -9.132 9.638 -23.616 1.444 -33.334 c 8.463 -3.907 14.331 -12.48 14.331 -22.42 c 0 -9.951 -5.868 -18.511 -14.331 -22.426 c 8.192 -9.7 7.708 -24.197 -1.444 -33.324 c -4.552 -4.564 -10.486 -6.976 -16.456 -7.204 c 0.392 -1.764 0.609 -3.599 0.609 -5.489 c 0 -13.642 -11.046 -24.714 -24.709 -24.714 c -3.318 0 -6.508 0.694 -9.393 1.887 c -2.253 -11.369 -12.234 -19.95 -24.251 -19.95 c -13.652 0 -24.709 11.059 -24.709 24.694 v 173.038 c 0 13.652 11.057 24.694 24.709 24.694 C 301.606 313.909 311.6 305.318 313.843 293.946 z" style="stroke: none; stroke-width: 1; stroke-dasharray: none; stroke-linecap: butt; stroke-linejoin: miter; stroke-miterlimit: 10; fill: #F96232; fill-rule: nonzero; opacity: 0;" transform=" matrix(1 0 0 1 0 0) " stroke-linecap="round" />
  <path d="M 198.144 293.946 c -2.906 1.224 -6.085 1.879 -9.398 1.879 c -13.658 0 -24.712 -11.052 -24.712 -24.694 c 0 -1.894 0.212 -3.727 0.602 -5.45 c -5.96 -0.246 -11.873 -2.673 -16.453 -7.227 c -9.116 -9.132 -9.608 -23.616 -1.439 -33.334 c -8.471 -3.907 -14.346 -12.48 -14.346 -22.42 c 0 -9.951 5.878 -18.511 14.346 -22.426 c -8.169 -9.7 -7.677 -24.197 1.439 -33.324 c 4.582 -4.564 10.493 -6.976 16.453 -7.204 c -0.389 -1.764 -0.602 -3.599 -0.602 -5.489 c 0 -13.642 11.054 -24.714 24.712 -24.714 c 3.31 0 6.492 0.694 9.398 1.887 c 2.214 -11.369 12.221 -19.95 24.261 -19.95 c 13.652 0 24.681 11.059 24.681 24.694 v 173.038 c 0 13.652 -11.028 24.694 -24.681 24.694 C 210.365 313.909 200.358 305.318 198.144 293.946 z" style="stroke: none; stroke-width: 1; stroke-dasharray: none; stroke-linecap: butt; stroke-linejoin: miter; stroke-miterlimit: 10; fill: #F96232; fill-rule: nonzero; opacity: 0;" transform=" matrix(1 0 0 1 0 0) " stroke-linecap="round" />
  <path d="M 354.424 379.906 l -8.589 -15.424 c 4.964 -2.76 9.851 -5.786 14.531 -8.991 l 9.976 14.569 C 365.209 373.573 359.856 376.888 354.424 379.906 z M 157.235 379.763 c -5.417 -3.028 -10.77 -6.349 -15.892 -9.869 l 9.994 -14.556 c 4.68 3.213 9.564 6.244 14.513 9.011 L 157.235 379.763 z M 385.275 358.794 L 374.013 345.2 c 4.362 -3.617 8.622 -7.488 12.641 -11.492 l 12.465 12.508 C 394.713 350.602 390.057 354.836 385.275 358.794 z M 126.425 358.597 c -4.767 -3.965 -9.416 -8.207 -13.824 -12.618 l 12.495 -12.475 c 4.022 4.024 8.266 7.898 12.618 11.515 L 126.425 358.597 z M 411.758 332.41 l -13.563 -11.31 c 3.633 -4.349 7.107 -8.929 10.335 -13.609 l 14.538 10.017 C 419.538 322.634 415.731 327.646 411.758 332.41 z M 100.001 332.147 c -3.965 -4.774 -7.764 -9.797 -11.282 -14.925 l 14.561 -9.989 c 3.21 4.682 6.676 9.272 10.301 13.632 L 100.001 332.147 z M 432.957 301.621 l -15.404 -8.635 c 2.775 -4.948 5.345 -10.081 7.644 -15.27 l 16.141 7.171 C 438.817 290.565 435.998 296.197 432.957 301.621 z M 78.863 301.319 c -3.031 -5.425 -5.837 -11.059 -8.358 -16.755 l 16.146 -7.14 c 2.299 5.197 4.861 10.34 7.626 15.283 L 78.863 301.319 z M 448.125 267.443 l -16.73 -5.635 c 1.807 -5.361 3.382 -10.885 4.687 -16.417 l 17.185 4.052 C 451.832 255.51 450.101 261.562 448.125 267.443 z M 63.736 267.117 c -1.974 -5.898 -3.699 -11.95 -5.123 -18.007 l 17.185 -4.037 c 1.3 5.527 2.872 11.052 4.675 16.425 L 63.736 267.117 z M 456.716 231.05 l -17.48 -2.45 c 0.786 -5.624 1.321 -11.346 1.59 -17.014 l 17.636 0.842 C 458.171 218.631 457.582 224.898 456.716 231.05 z M 55.188 230.707 c -0.85 -6.154 -1.423 -12.421 -1.702 -18.629 l 17.633 -0.796 c 0.259 5.67 0.781 11.392 1.559 17.011 L 55.188 230.707 z M 440.865 194.49 c -0.241 -5.658 -0.755 -11.382 -1.526 -17.014 l 17.498 -2.386 c 0.84 6.17 1.403 12.439 1.672 18.637 L 440.865 194.49 z M 71.129 194.186 l -17.638 -0.814 c 0.294 -6.213 0.865 -12.48 1.713 -18.621 l 17.49 2.414 C 71.915 182.776 71.39 188.502 71.129 194.186 z M 436.252 160.683 c -1.285 -5.532 -2.847 -11.059 -4.644 -16.433 l 16.755 -5.588 c 1.964 5.893 3.676 11.96 5.084 18.02 L 436.252 160.683 z M 75.809 160.371 l -17.193 -4.022 c 1.416 -6.044 3.133 -12.104 5.105 -18.004 l 16.748 5.591 C 78.663 149.322 77.102 154.851 75.809 160.371 z M 425.461 128.314 c -2.286 -5.181 -4.838 -10.335 -7.598 -15.299 l 15.437 -8.573 c 3.026 5.445 5.824 11.085 8.32 16.763 L 425.461 128.314 z M 86.625 128.015 l -16.156 -7.135 c 2.514 -5.686 5.317 -11.325 8.343 -16.75 l 15.424 8.591 C 91.479 117.677 88.911 122.821 86.625 128.015 z M 408.891 98.47 c -3.2 -4.685 -6.659 -9.277 -10.276 -13.65 l 13.601 -11.256 c 3.965 4.79 7.747 9.823 11.254 14.953 L 408.891 98.47 z M 103.229 98.206 L 88.67 88.222 c 3.517 -5.128 7.311 -10.15 11.282 -14.927 l 13.581 11.279 C 109.903 88.936 106.447 93.524 103.229 98.206 z M 387.133 72.163 c -4.004 -4.022 -8.246 -7.908 -12.595 -11.548 l 11.318 -13.548 c 4.764 3.981 9.405 8.236 13.793 12.641 L 387.133 72.163 z M 125.045 71.948 l -12.49 -12.483 c 4.393 -4.393 9.042 -8.637 13.824 -12.613 l 11.292 13.573 C 133.299 64.056 129.057 67.932 125.045 71.948 z M 360.926 50.273 c -4.672 -3.22 -9.549 -6.264 -14.49 -9.037 l 8.637 -15.398 c 5.417 3.039 10.762 6.372 15.882 9.907 L 360.926 50.273 z M 151.293 50.106 l -9.997 -14.548 c 5.115 -3.52 10.468 -6.845 15.89 -9.879 l 8.617 15.411 C 160.852 43.855 155.968 46.893 151.293 50.106 z M 331.174 33.574 c -5.179 -2.304 -10.537 -4.398 -15.905 -6.208 l 5.645 -16.727 c 5.891 1.987 11.758 4.278 17.441 6.81 L 331.174 33.574 z M 181.084 33.446 l -7.158 -16.143 c 5.691 -2.516 11.558 -4.797 17.446 -6.781 l 5.627 16.735 C 191.631 29.066 186.276 31.144 181.084 33.446 z M 298.852 22.658 c -5.519 -1.308 -11.167 -2.371 -16.783 -3.162 l 2.458 -17.485 c 6.154 0.868 12.342 2.035 18.394 3.466 L 298.852 22.658 z M 213.424 22.568 l -4.05 -17.185 c 6.052 -1.423 12.237 -2.58 18.391 -3.443 l 2.442 17.49 C 224.586 20.216 218.939 21.27 213.424 22.568 z M 265.075 17.881 l -0.778 -0.036 c -5.734 -0.259 -11.446 -0.253 -17.083 0.01 l -0.809 -17.638 c 6.162 -0.284 12.403 -0.292 18.706 -0.008 l 0.786 0.041 L 265.075 17.881 z" style="stroke: none; stroke-width: 1; stroke-dasharray: none; stroke-linecap: butt; stroke-linejoin: miter; stroke-miterlimit: 10; fill: #004040; fill-rule: nonzero; opacity: 1;" transform=" matrix(1 0 0 1 0 0) " stroke-linecap="round" />
</g>
<g style="stroke: none; stroke-width: 1; stroke-dasharray: none; stroke-linecap: butt; stroke-linejoin: miter; stroke-miterlimit: 10; fill: none; fill-rule: nonzero; opacity: 1;" transform="translate(15.960000000000036 15.29000000000002) scale(0.35 0.35)" >
  <path d="M 256 47.414 c -84.918 -0.023 -153.789 68.846 -153.777 153.772 c -0.013 65.247 40.663 120.975 98.022 143.311 c 3.579 -19.213 20.503 -33.866 40.689 -33.866 h 30.095 c 20.234 0 37.151 14.656 40.724 33.866 c 57.362 -22.336 98.03 -78.065 98.012 -143.311 C 409.779 116.26 340.941 47.398 256 47.414 z" style="stroke: none; stroke-width: 1; stroke-dasharray: none; stroke-linecap: butt; stroke-linejoin: miter; stroke-miterlimit: 10; fill: #15ad99; fill-rule: nonzero; opacity: 1;" transform=" matrix(1 0 0 1 0 0) " stroke-linecap="round" />
  <path d="M 265.459 266.614 c -0.046 0 -0.087 0 -0.133 0 H 246.6 c -0.033 0 -0.064 0 -0.1 0 c -9.869 0 -19.195 -3.863 -26.25 -10.872 c -7.055 -7.099 -10.926 -16.463 -10.926 -26.401 h 18.291 c 0 5.074 1.981 9.853 5.571 13.468 c 3.566 3.54 8.312 5.512 13.34 5.512 c 0.015 0 0.033 0 0.049 0 h 18.78 c 5.151 0.179 9.902 -1.956 13.535 -5.56 c 3.484 -3.571 5.458 -8.374 5.448 -13.407 c 0.051 -5.005 -1.969 -9.884 -5.524 -13.494 c -3.556 -3.553 -8.346 -5.54 -13.445 -5.54 c -0.003 0 -0.008 0 -0.013 0 l -18.755 0.008 c -9.969 -0.008 -19.331 -3.894 -26.371 -10.947 c -7.025 -7.009 -10.903 -16.376 -10.903 -26.36 c 0 -9.935 3.863 -19.295 10.88 -26.371 c 7.181 -7.071 16.525 -10.921 26.378 -10.921 c 0.008 0 0.013 0 0.015 0 h 18.76 c 0.008 0 0.018 0 0.02 0 c 9.874 0 19.233 3.85 26.355 10.839 c 7.066 7.247 10.89 16.584 10.908 26.435 l -18.294 0.033 c -0.013 -5.061 -1.987 -9.876 -5.576 -13.558 c -3.533 -3.466 -8.346 -5.455 -13.396 -5.455 c -0.005 0 -0.01 0 -0.013 0 H 246.6 c -0.008 0 -0.008 0 -0.008 0 c -5.033 0 -9.812 1.984 -13.478 5.588 c -3.517 3.551 -5.496 8.338 -5.496 13.412 c 0 5.092 1.974 9.861 5.542 13.422 c 3.604 3.604 8.371 5.588 13.448 5.594 l 18.744 -0.008 c 0.003 0 0.013 0 0.015 0 c 9.984 0 19.372 3.889 26.424 10.941 c 6.999 7.094 10.934 16.717 10.836 26.455 c 0.018 9.738 -3.799 19.09 -10.752 26.214 C 284.7 262.761 275.361 266.614 265.459 266.614 z" style="stroke: none; stroke-width: 1; stroke-dasharray: none; stroke-linecap: butt; stroke-linejoin: miter; stroke-miterlimit: 10; fill: #FFFFFF; fill-rule: nonzero; opacity: 1;" transform=" matrix(1 0 0 1 0 0) " stroke-linecap="round" />
  <rect x="246.84" y="122.38" rx="0" ry="0" width="18.29" height="22.49" style="stroke: none; stroke-width: 1; stroke-dasharray: none; stroke-linecap: butt; stroke-linejoin: miter; stroke-miterlimit: 10; fill: #FFFFFF; fill-rule: nonzero; opacity: 1;" transform=" matrix(1 0 0 1 0 0) "/>
  <rect x="246.84" y="257.49" rx="0" ry="0" width="18.29" height="22.52" style="stroke: none; stroke-width: 1; stroke-dasharray: none; stroke-linecap: butt; stroke-linejoin: miter; stroke-miterlimit: 10; fill: #FFFFFF; fill-rule: nonzero; opacity: 1;" transform=" matrix(1 0 0 1 0 0) "/>
  <path d="M 271.03 512 h -30.095 c -27.878 0 -50.56 -22.687 -50.56 -50.57 V 352.041 c 0 -27.881 22.684 -50.56 50.56 -50.56 h 30.095 c 27.901 0 50.601 22.679 50.601 50.56 V 461.43 C 321.631 489.313 298.934 512 271.03 512 z M 240.934 319.775 c -17.795 0 -32.269 14.474 -32.269 32.266 V 461.43 c 0 17.8 14.474 32.276 32.269 32.276 h 30.095 c 17.815 0 32.307 -14.477 32.307 -32.276 V 352.041 c 0 -17.789 -14.492 -32.266 -32.307 -32.266 H 240.934 z" style="stroke: none; stroke-width: 1; stroke-dasharray: none; stroke-linecap: butt; stroke-linejoin: miter; stroke-miterlimit: 10; fill: #242D3C; fill-rule: nonzero; opacity: 0;" transform=" matrix(1 0 0 1 0 0) " stroke-linecap="round" />
  <path d="M 268.8 353.923 c 0 7.081 -5.745 12.833 -12.82 12.833 c -7.076 0 -12.79 -5.752 -12.79 -12.833 c 0 -7.099 5.714 -12.828 12.79 -12.828 C 263.055 341.094 268.8 346.824 268.8 353.923 z" style="stroke: none; stroke-width: 1; stroke-dasharray: none; stroke-linecap: butt; stroke-linejoin: miter; stroke-miterlimit: 10; fill: #242D3C; fill-rule: nonzero; opacity: 0;" transform=" matrix(1 0 0 1 0 0) " stroke-linecap="round" />
  <path d="M 155.535 375.747 c -5.496 -3.18 -10.921 -6.656 -16.113 -10.35 l 10.596 -14.909 c 4.726 3.361 9.659 6.525 14.661 9.413 L 155.535 375.747 z M 356.826 375.549 l -9.16 -15.836 c 4.987 -2.888 9.915 -6.06 14.633 -9.434 l 10.632 14.881 C 367.736 368.878 362.317 372.37 356.826 375.549 z M 124.355 353.569 c -4.815 -4.168 -9.487 -8.604 -13.875 -13.197 l 13.22 -12.646 c 3.999 4.175 8.238 8.218 12.626 12.004 L 124.355 353.569 z M 387.96 353.316 l -11.983 -13.821 c 4.36 -3.781 8.599 -7.828 12.598 -12.024 l 13.248 12.618 C 397.422 344.701 392.758 349.158 387.96 353.316 z M 97.907 325.924 c -3.953 -5.002 -7.698 -10.248 -11.144 -15.575 l 15.36 -9.93 c 3.139 4.849 6.546 9.613 10.14 14.164 L 97.907 325.924 z M 414.351 325.612 l -14.367 -11.323 c 3.564 -4.523 6.961 -9.295 10.107 -14.175 l 15.383 9.892 C 422.019 315.382 418.278 320.635 414.351 325.612 z M 77.14 293.783 c -2.929 -5.645 -5.619 -11.5 -8 -17.408 l 16.965 -6.838 c 2.161 5.371 4.611 10.693 7.273 15.821 L 77.14 293.783 z M 435.064 293.422 l -16.259 -8.387 c 2.65 -5.135 5.087 -10.463 7.24 -15.841 l 16.978 6.804 C 440.663 281.91 437.978 287.772 435.064 293.422 z M 62.838 258.281 c -1.805 -6.106 -3.323 -12.367 -4.539 -18.614 l 17.964 -3.474 c 1.096 5.67 2.486 11.364 4.124 16.911 L 62.838 258.281 z M 449.285 257.887 l -17.554 -5.135 c 1.623 -5.558 2.998 -11.256 4.083 -16.927 l 17.966 3.438 C 452.585 245.501 451.072 251.763 449.285 257.887 z M 55.562 220.71 c -0.607 -6.305 -0.919 -12.746 -0.937 -19.121 l 18.294 -0.033 c 0.013 5.806 0.297 11.661 0.852 17.403 L 55.562 220.71 z M 456.481 220.301 l -18.212 -1.713 c 0.538 -5.747 0.812 -11.607 0.812 -17.4 v -0.781 h 18.294 v 0.781 C 457.372 207.549 457.073 213.985 456.481 220.301 z M 73.7 184.151 l -18.209 -1.677 c 0.584 -6.341 1.48 -12.721 2.66 -18.967 l 17.974 3.4 C 75.046 172.59 74.232 178.391 73.7 184.151 z M 438.198 183.037 c -0.568 -5.752 -1.416 -11.548 -2.524 -17.226 l 17.948 -3.51 c 1.226 6.249 2.163 12.623 2.783 18.949 L 438.198 183.037 z M 80.174 149.98 l -17.562 -5.107 c 1.774 -6.111 3.866 -12.204 6.221 -18.12 l 16.993 6.764 C 83.692 138.89 81.789 144.428 80.174 149.98 z M 431.521 148.91 c -1.654 -5.558 -3.587 -11.082 -5.757 -16.43 l 16.957 -6.868 c 2.383 5.883 4.516 11.973 6.336 18.081 L 431.521 148.91 z M 93.03 117.665 l -16.271 -8.358 c 2.906 -5.66 6.124 -11.251 9.554 -16.604 l 15.398 9.866 C 98.598 107.438 95.672 112.52 93.03 117.665 z M 418.468 116.68 c -2.68 -5.133 -5.629 -10.196 -8.778 -15.045 l 15.342 -9.961 c 3.466 5.332 6.712 10.906 9.654 16.55 L 418.468 116.68 z M 111.793 88.366 L 97.395 77.084 c 3.924 -5.005 8.136 -9.884 12.516 -14.5 l 13.266 12.588 C 119.191 79.37 115.361 83.809 111.793 88.366 z M 399.521 87.485 c -3.592 -4.524 -7.444 -8.945 -11.456 -13.12 l 13.187 -12.672 c 4.413 4.593 8.653 9.446 12.603 14.426 L 399.521 87.485 z M 135.752 63.117 l -12.017 -13.788 c 4.8 -4.186 9.853 -8.184 15.014 -11.891 l 10.668 14.866 C 144.717 55.672 140.119 59.308 135.752 63.117 z M 375.424 62.387 c -4.393 -3.781 -9.014 -7.388 -13.727 -10.726 l 10.568 -14.927 c 5.187 3.666 10.268 7.634 15.091 11.791 L 375.424 62.387 z M 164.032 42.836 l -9.203 -15.811 c 5.504 -3.205 11.22 -6.177 16.993 -8.84 l 7.657 16.612 C 174.231 37.225 169.032 39.928 164.032 42.836 z M 347.021 42.278 c -5.02 -2.877 -10.235 -5.548 -15.503 -7.939 l 7.552 -16.655 c 5.798 2.624 11.533 5.563 17.055 8.732 L 347.021 42.278 z M 195.62 28.283 l -6.031 -17.27 c 6.016 -2.099 12.196 -3.932 18.376 -5.443 l 4.347 17.769 C 206.697 24.717 201.08 26.378 195.62 28.283 z M 315.331 27.919 c -5.461 -1.869 -11.08 -3.497 -16.717 -4.836 l 4.239 -17.8 c 6.2 1.48 12.393 3.269 18.401 5.33 L 315.331 27.919 z M 229.396 20.017 l -2.632 -18.102 c 6.277 -0.911 12.692 -1.539 19.057 -1.859 l 0.916 18.271 C 240.942 18.619 235.108 19.187 229.396 20.017 z M 281.5 19.858 c -5.704 -0.794 -11.538 -1.329 -17.339 -1.582 L 264.963 0 c 6.38 0.284 12.795 0.863 19.067 1.743 L 281.5 19.858 z" style="stroke: none; stroke-width: 1; stroke-dasharray: none; stroke-linecap: butt; stroke-linejoin: miter; stroke-miterlimit: 10; fill: #242D3C; fill-rule: nonzero; opacity: 0;" transform=" matrix(1 0 0 1 0 0) " stroke-linecap="round" />
</g>
</svg>